<?xml version="1.0" encoding="utf-8"?>
<!-- Designed by Vexels.com - 2020 All Rights Reserved - https://vexels.com/terms-and-conditions/  -->
<svg version="1.1" id="Layer_1" xmlns="http://www.w3.org/2000/svg" xmlns:xlink="http://www.w3.org/1999/xlink" x="0px" y="0px"
	 viewBox="0 0 1200 1200" enable-background="new 0 0 1200 1200" xml:space="preserve">
<g>
	<g id="XMLID_19_">
		<g>
			<g>
				<polygon fill="#CC0809" points="1117.085,566.261 1145.977,601.599 1114.863,635.378 1091.904,619.248 1103.017,600 
					1092.256,581.366 				"/>
			</g>
			<g>
				<polygon fill="#646A72" points="1103.147,465.437 1053.59,514.391 1035.629,483.277 1035.629,447.255 				"/>
			</g>
			<g>
				<polygon fill="#646A72" points="1103.147,734.554 1035.69,752.635 1035.629,716.724 1053.59,685.61 				"/>
			</g>
			<g>
				<polygon fill="#7A5CBC" points="1092.256,581.366 1063.184,599.065 1091.904,619.248 1074.557,649.286 1053.59,685.61 
					992.86,624.88 1035.629,600 992.86,575.302 992.86,575.121 1034.905,533.075 1053.59,514.391 				"/>
			</g>
			<g>
				<polygon fill="#F7AD23" points="996.711,706.305 981.466,649.377 918.765,649.377 968.282,600.171 992.86,624.88 
					1053.59,685.61 1035.629,716.724 1035.69,752.635 1035.629,802.132 1023.28,805.159 1010.971,759.513 				"/>
			</g>
			<g>
				<polygon fill="#F7AD23" points="1023.28,805.159 1035.73,851.328 989.33,863.838 975.885,816.784 				"/>
			</g>
			<g>
				<polygon fill="#CC0809" points="1035.629,600 992.86,624.88 968.282,600.171 992.86,575.302 				"/>
			</g>
			<g>
				<polygon fill="#F7AD23" points="1035.529,348.311 1023.159,394.751 975.684,382.864 989.31,336.002 				"/>
			</g>
			<g>
				<polygon fill="#F25C05" points="1010.971,759.513 1023.28,805.159 975.885,816.784 989.33,863.838 943.634,876.157 
					890.416,890.416 905.672,833.498 851.438,802.192 918.805,784.463 901.046,716.784 955.048,747.959 996.711,706.305 				"/>
			</g>
			<g>
				<polygon fill="#F25C05" points="1023.159,394.751 1010.971,440.487 996.721,493.695 955.048,452.032 900.824,483.337 
					919.157,416.141 851.669,397.677 905.672,366.493 890.416,309.584 890.416,309.574 943.634,323.834 989.31,336.002 
					975.684,382.864 				"/>
			</g>
			<g>
				<polygon fill="#2D3540" points="996.721,493.695 981.466,550.614 918.694,550.533 890.215,522.235 900.824,483.337 
					955.048,452.032 				"/>
			</g>
			<g>
				<polygon fill="#2D3540" points="981.466,649.377 996.711,706.305 955.048,747.959 901.046,716.784 890.688,677.283 
					890.859,677.112 918.765,649.377 				"/>
			</g>
			<g>
				<polygon fill="#F7AD23" points="968.282,599.819 918.694,550.533 981.466,550.614 996.721,493.695 1010.971,440.487 
					1023.159,394.751 1035.629,397.868 1035.629,447.255 1035.629,483.277 1053.59,514.391 1034.905,533.075 992.86,575.121 
					992.86,575.302 968.282,600.171 968.101,600 				"/>
			</g>
			<g>
				<polygon fill="#646A72" points="918.564,550.533 968.101,600 918.644,649.377 882.592,649.377 869.006,599.9 869.66,599.719 
					882.592,550.493 				"/>
			</g>
			<g>
				<polygon fill="#646A72" points="950.09,900.885 968.101,968.453 900.935,950.01 918.896,918.896 				"/>
			</g>
			<g>
				<polygon fill="#646A72" points="900.935,249.98 968.101,231.537 950.03,299.005 918.896,281.094 				"/>
			</g>
			<g>
				<polygon fill="#646A72" points="919.157,416.141 900.824,483.337 869.439,501.458 833.286,465.306 820.052,415.929 
					851.669,397.677 				"/>
			</g>
			<g>
				<polygon fill="#646A72" points="901.046,716.784 918.805,784.463 851.438,802.192 820.052,784.071 833.286,734.684 
					869.439,698.532 				"/>
			</g>
			<g>
				<polygon fill="#CC0809" points="890.688,677.283 901.046,716.784 869.439,698.532 833.286,734.684 846.46,685.549 
					768.554,640.537 797.144,600.05 810.348,649.377 856.687,649.377 868.956,599.719 869.006,599.9 882.592,649.377 
					918.644,649.377 890.859,677.112 				"/>
			</g>
			<g>
				<polygon fill="#CC0809" points="918.564,550.533 882.592,550.493 869.66,599.719 856.144,550.614 809.744,550.413 
					797.144,600.05 769.107,559.061 846.44,514.411 833.286,465.306 869.439,501.458 900.824,483.337 890.215,522.235 				"/>
			</g>
			<g>
				<polygon fill="#F7AD23" points="900.935,249.98 918.896,281.094 950.03,299.005 992.86,323.804 989.31,336.002 943.634,323.834 
					890.416,309.574 833.497,294.329 802.152,348.623 784.292,281.145 817.981,272.215 				"/>
			</g>
			<g>
				<polygon fill="#2D3540" points="890.416,309.584 905.672,366.493 851.669,397.677 812.279,386.897 802.152,348.623 
					833.497,294.329 890.416,309.574 				"/>
			</g>
			<g>
				<polygon fill="#2D3540" points="905.672,833.498 890.416,890.416 833.497,905.662 802.182,851.267 812.45,812.45 
					851.438,802.192 				"/>
			</g>
			<g>
				<polygon fill="#7A5CBC" points="900.935,950.01 862.268,1016.985 832.401,1000.654 829.284,1035.62 794.6,1035.62 
					752.655,1035.62 774.879,952.665 817.81,977.263 817.81,927.876 817.981,927.786 875.412,943.172 				"/>
			</g>
			<g>
				<polygon fill="#CC0809" points="887.761,1030.933 871.601,1073.632 826.79,1063.576 829.284,1035.62 851.508,1035.62 
					862.268,1016.985 				"/>
			</g>
			<g>
				<polygon fill="#CC0809" points="874.376,127.967 888.073,171.802 862.62,183.619 851.508,164.371 829.998,164.371 
					829.324,135.318 				"/>
			</g>
			<g>
				<polygon fill="#7A5CBC" points="856.144,550.614 869.66,599.719 869.006,599.9 868.956,599.719 856.687,649.377 
					810.348,649.377 797.144,600.05 809.744,550.413 				"/>
			</g>
			<g>
				<polygon fill="#CC0809" points="812.279,386.897 851.669,397.677 820.052,415.929 833.286,465.306 797.315,429.335 
					719.388,474.296 698.622,429.294 747.938,442.518 771.108,402.394 734.242,366.935 784.061,379.958 802.081,348.733 				"/>
			</g>
			<g>
				<polygon fill="#CC0809" points="820.052,784.071 851.438,802.192 812.45,812.45 802.112,851.157 784.161,819.972 
					735.066,833.387 735.197,833.256 770.837,797.134 747.818,756.849 698.522,770.756 720.012,725.976 797.345,770.626 
					833.286,734.684 				"/>
			</g>
			<g>
				<polygon fill="#F7AD23" points="846.46,685.549 833.286,734.684 797.345,770.626 720.012,725.976 724.437,716.754 
					685.941,649.377 762.309,649.377 768.554,640.537 				"/>
			</g>
			<g>
				<polygon fill="#F7AD23" points="833.286,465.306 846.44,514.411 769.107,559.061 763.335,550.614 685.74,550.262 
					723.924,484.121 719.388,474.296 797.315,429.335 				"/>
			</g>
			<g>
				<polygon fill="#7A5CBC" points="879.968,213.657 900.935,249.98 817.981,272.215 817.81,222.738 775.05,247.426 
					774.879,247.335 759.493,189.904 752.655,164.371 829.998,164.371 830.782,198.401 862.62,183.619 				"/>
			</g>
			<g>
				<polygon fill="#CC0809" points="817.81,222.738 817.981,272.215 784.292,281.145 775.05,247.426 				"/>
			</g>
			<g>
				<polygon fill="#CC0809" points="817.81,927.876 817.81,977.263 774.879,952.665 783.99,919.027 				"/>
			</g>
			<g>
				<polygon fill="#5933AB" points="698.864,599.94 698.582,599.779 769.107,559.061 797.144,600.05 768.554,640.537 
					698.572,600.111 				"/>
			</g>
			<g>
				<polygon fill="#F7AD23" points="784.292,918.846 802.182,851.267 833.497,905.662 890.416,890.416 943.634,876.157 
					989.33,863.838 992.86,876.197 950.09,900.885 918.896,918.896 900.935,950.01 875.412,943.172 817.981,927.786 817.81,927.876 
					783.99,919.027 784.051,918.785 				"/>
			</g>
			<g>
				<polygon fill="#F7AD23" points="775.05,247.426 784.292,281.145 784.051,281.205 783.99,280.974 716.512,299.276 
					747.968,244.942 706.295,203.279 667.347,164.321 633.829,130.903 642.769,121.672 685.539,146.36 716.724,164.371 
					752.655,164.371 759.493,189.904 774.879,247.335 				"/>
			</g>
			<g>
				<polygon fill="#F7AD23" points="783.99,919.027 774.879,952.665 752.655,1035.62 716.724,1035.62 685.66,1053.63 
					642.759,1078.329 633.96,1069.147 667.347,1035.67 706.305,996.722 747.968,955.048 716.623,900.754 				"/>
			</g>
			<g>
				<polygon fill="#7A5CBC" points="771.108,402.394 747.938,442.518 698.622,429.294 661.927,393.554 685.308,353.48 
					734.413,366.292 734.242,366.935 				"/>
			</g>
			<g>
				<polygon fill="#7A5CBC" points="747.818,756.849 770.837,797.134 735.197,833.256 734.714,832.784 685.579,846.993 
					662.409,806.859 698.522,770.756 				"/>
			</g>
			<g>
				<polygon fill="#F25C05" points="763.335,550.614 769.107,559.061 698.582,599.779 667.458,581.919 667.367,582.08 657.019,600 
					667.156,617.921 667.317,617.83 667.458,618.071 698.572,600.111 768.554,640.537 762.309,649.377 685.941,649.377 
					724.437,716.754 720.012,725.976 649.487,685.258 649.386,649.377 649.195,649.377 628.62,649.377 628.51,649.377 
					618.061,667.116 618.222,667.207 618.071,667.458 649.185,685.419 649.165,766.241 638.385,765.256 600.201,699.115 
					561.102,766.141 550.905,766.925 550.905,685.479 581.929,667.458 581.828,667.297 571.541,649.477 571.49,649.377 
					550.905,649.196 550.905,649.377 550.613,649.377 550.613,685.308 480.611,725.694 476.076,715.869 514.26,649.729 
					436.665,649.377 430.893,640.939 501.418,600.221 532.542,618.071 532.633,617.911 542.981,600 532.844,582.08 532.683,582.17 
					532.542,581.919 501.428,599.88 431.446,559.453 437.691,550.614 514.059,550.614 475.563,483.236 479.988,474.015 
					550.513,514.733 550.613,550.614 550.804,550.614 571.38,550.614 571.49,550.614 581.939,532.874 581.788,532.784 
					581.929,532.542 550.814,514.582 550.835,433.759 561.615,434.745 599.799,500.885 638.898,433.85 649.095,433.076 
					649.095,514.512 618.071,532.542 628.459,550.523 628.51,550.614 649.095,550.795 649.095,550.614 649.386,550.614 
					649.386,514.682 719.388,474.296 723.924,484.121 685.74,550.262 				"/>
			</g>
			<g>
				<polygon fill="#646A72" points="735.036,96.984 752.655,164.371 716.724,164.371 685.539,146.36 				"/>
			</g>
			<g>
				<polygon fill="#646A72" points="752.655,1035.62 735.036,1103.017 685.66,1053.63 716.724,1035.62 				"/>
			</g>
			<g>
				<polygon fill="#2D3540" points="716.623,900.754 747.968,955.048 706.305,996.722 706.295,996.712 649.386,981.466 
					649.386,919.107 678.419,890.386 680.289,890.889 				"/>
			</g>
			<g>
				<polygon fill="#646A72" points="735.066,833.387 784.161,819.972 802.112,851.157 784.051,918.785 716.553,900.644 
					698.532,869.419 734.714,832.784 735.197,833.256 				"/>
			</g>
			<g>
				<polygon fill="#CC0809" points="678.419,890.386 649.386,919.107 649.386,882.613 600,869.379 649.135,856.205 649.165,766.241 
					698.522,770.756 662.409,806.859 685.579,846.993 734.714,832.784 698.532,869.419 716.553,900.644 680.289,890.889 				"/>
			</g>
			<g>
				<polygon fill="#646A72" points="734.583,366.332 698.421,330.521 716.452,299.387 784.051,281.205 802.081,348.733 
					784.061,379.958 734.242,366.935 734.413,366.292 				"/>
			</g>
			<g>
				<polygon fill="#CC0809" points="734.583,366.332 734.413,366.292 685.308,353.48 661.927,393.554 698.622,429.294 
					649.095,433.076 649.095,343.775 600,330.622 649.386,317.388 649.386,281.145 677.765,309.785 716.452,299.387 
					698.421,330.521 				"/>
			</g>
			<g>
				<polygon fill="#5933AB" points="649.386,514.341 649.095,514.512 649.095,433.076 698.622,429.294 719.388,474.296 
					649.386,514.682 				"/>
			</g>
			<g>
				<polygon fill="#2D3540" points="706.295,203.279 747.968,244.942 716.512,299.276 677.765,309.785 649.386,281.145 
					649.386,218.534 				"/>
			</g>
			<g>
				<polygon fill="#F25C05" points="706.305,996.722 667.347,1035.67 633.96,1069.147 600.201,1033.92 566.17,1069.087 
					532.653,1035.67 493.695,996.712 550.613,981.466 550.613,918.846 599.648,968.323 649.386,919.107 649.386,981.466 
					706.295,996.712 				"/>
			</g>
			<g>
				<polygon fill="#F25C05" points="667.347,164.321 706.295,203.279 649.386,218.534 649.386,281.145 600.352,231.668 
					550.613,280.883 550.613,218.534 493.695,203.279 532.653,164.321 566.03,130.843 599.799,166.07 633.829,130.903 				"/>
			</g>
			<g>
				<polygon fill="#7A5CBC" points="667.367,582.08 698.29,599.95 667.317,617.83 657.08,599.91 				"/>
			</g>
			<g>
				<polygon fill="#5933AB" points="649.487,685.258 720.012,725.976 698.522,770.756 649.165,766.241 649.185,685.419 
					649.487,685.589 				"/>
			</g>
			<g>
				<polygon fill="#646A72" points="649.386,882.613 649.386,919.107 599.648,968.323 550.613,918.846 550.613,882.613 600,869.379 
									"/>
			</g>
			<g>
				<polygon fill="#646A72" points="649.386,281.145 649.386,317.388 600,330.622 550.613,317.388 550.613,280.883 600.352,231.668 
									"/>
			</g>
			<g>
				<polygon fill="#7A5CBC" points="649.195,649.377 649.185,685.087 618.222,667.207 628.62,649.377 				"/>
			</g>
			<g>
				<polygon fill="#F7AD23" points="649.165,766.241 649.135,856.205 600,869.379 550.905,856.225 550.905,766.925 561.102,766.141 
					600.201,699.115 638.385,765.256 				"/>
			</g>
			<g>
				<polygon fill="#7A5CBC" points="649.095,514.853 649.095,550.614 628.459,550.523 618.172,532.693 				"/>
			</g>
			<g>
				<polygon fill="#F7AD23" points="649.095,343.775 649.095,433.076 638.898,433.85 599.799,500.885 561.615,434.745 
					550.835,433.759 550.865,343.786 600,330.622 				"/>
			</g>
			<g>
				<polygon fill="#F7AD23" points="633.96,1069.147 600.201,1103.017 566.17,1069.087 600.201,1033.92 				"/>
			</g>
			<g>
				<polygon fill="#F7AD23" points="633.829,130.903 599.799,166.07 566.03,130.843 599.799,96.984 				"/>
			</g>
			<g>
				<polygon fill="#CC0809" points="521.581,309.604 550.613,280.883 550.613,317.388 600,330.622 550.865,343.786 550.835,433.759 
					501.478,429.234 537.59,393.142 514.421,353.007 465.286,367.217 465.416,367.086 501.468,330.572 483.447,299.357 				"/>
			</g>
			<g>
				<polygon fill="#CC0809" points="600,869.379 550.613,882.613 550.613,918.846 522.234,890.215 483.548,900.614 501.579,869.479 
					465.406,833.669 514.692,846.521 538.073,806.436 501.378,770.706 550.905,766.925 550.905,856.225 				"/>
			</g>
			<g>
				<polygon fill="#7A5CBC" points="571.541,649.477 581.828,667.297 550.905,685.137 550.905,649.377 				"/>
			</g>
			<g>
				<polygon fill="#7A5CBC" points="581.788,532.784 571.38,550.614 550.804,550.614 550.814,514.904 				"/>
			</g>
			<g>
				<polygon fill="#F7AD23" points="566.03,130.843 532.653,164.321 493.695,203.279 452.031,244.942 483.387,299.246 
					416.01,280.974 425.121,247.335 447.345,164.371 483.276,164.371 514.34,146.36 557.24,121.672 				"/>
			</g>
			<g>
				<polygon fill="#5933AB" points="550.613,685.65 550.905,685.479 550.905,766.925 501.378,770.706 480.611,725.694 
					550.613,685.308 				"/>
			</g>
			<g>
				<polygon fill="#2D3540" points="550.613,918.846 550.613,981.466 493.695,996.712 452.031,955.048 483.487,900.724 
					522.234,890.215 				"/>
			</g>
			<g>
				<polygon fill="#2D3540" points="550.613,218.534 550.613,280.883 521.581,309.604 483.387,299.246 452.031,244.942 
					493.695,203.279 				"/>
			</g>
			<g>
				<polygon fill="#5933AB" points="550.513,514.733 479.988,474.015 501.478,429.234 550.835,433.759 550.814,514.582 
					550.513,514.411 				"/>
			</g>
			<g>
				<polygon fill="#7A5CBC" points="532.683,582.17 542.92,600.091 532.633,617.911 501.72,600.05 				"/>
			</g>
			<g>
				<polygon fill="#646A72" points="514.461,1053.63 464.964,1103.017 447.345,1035.62 483.276,1035.62 				"/>
			</g>
			<g>
				<polygon fill="#646A72" points="514.34,146.36 483.276,164.371 447.345,164.371 464.964,96.984 				"/>
			</g>
			<g>
				<polygon fill="#F7AD23" points="514.26,649.729 476.076,715.869 480.611,725.694 402.685,770.656 366.714,734.684 
					353.55,685.589 430.893,640.939 436.665,649.377 				"/>
			</g>
			<g>
				<polygon fill="#F7AD23" points="475.563,483.236 514.059,550.614 437.691,550.614 431.446,559.453 353.54,514.451 
					366.714,465.306 402.655,429.365 479.988,474.015 				"/>
			</g>
			<g>
				<polygon fill="#646A72" points="501.579,869.479 483.548,900.614 415.949,918.785 397.908,851.257 415.939,820.032 
					465.577,833.005 465.406,833.669 				"/>
			</g>
			<g>
				<polygon fill="#CC0809" points="501.478,429.234 479.988,474.015 402.655,429.365 366.714,465.306 379.948,415.919 
					348.562,397.798 387.55,387.541 397.888,348.834 415.839,380.018 464.934,366.603 429.163,402.856 452.182,443.142 				"/>
			</g>
			<g>
				<polygon fill="#646A72" points="483.447,299.357 501.468,330.572 465.416,367.086 464.934,366.603 415.839,380.018 
					397.888,348.834 415.949,281.205 				"/>
			</g>
			<g>
				<polygon fill="#5933AB" points="501.126,600.061 501.418,600.221 430.893,640.939 402.856,599.94 431.446,559.453 
					501.428,599.88 				"/>
			</g>
			<g>
				<polygon fill="#CC0809" points="387.721,813.104 348.331,802.323 379.948,784.071 366.714,734.684 402.685,770.656 
					480.611,725.694 501.378,770.706 452.061,757.472 428.892,797.607 465.758,833.055 465.577,833.005 415.939,820.032 
					397.908,851.257 				"/>
			</g>
			<g>
				<polygon fill="#7A5CBC" points="465.406,833.669 465.577,833.005 465.758,833.055 428.892,797.607 452.061,757.472 
					501.378,770.706 538.073,806.436 514.692,846.521 				"/>
			</g>
			<g>
				<polygon fill="#7A5CBC" points="465.286,367.217 514.421,353.007 537.59,393.142 501.478,429.234 452.182,443.142 
					429.163,402.856 464.934,366.603 465.416,367.086 				"/>
			</g>
			<g>
				<polygon fill="#7A5CBC" points="447.345,164.371 425.121,247.335 382.19,222.738 382.19,272.114 382.019,272.215 
					324.588,256.819 299.065,249.98 337.731,183.005 367.599,199.337 370.716,164.371 405.4,164.371 				"/>
			</g>
			<g>
				<polygon fill="#7A5CBC" points="440.507,1010.097 447.345,1035.62 370.002,1035.62 369.218,1001.589 337.379,1016.372 
					320.032,986.334 299.065,950.01 382.019,927.786 382.19,977.263 424.95,952.564 425.121,952.665 				"/>
			</g>
			<g>
				<polygon fill="#CC0809" points="309.302,522.707 298.944,483.206 330.561,501.458 366.714,465.306 353.54,514.451 
					431.446,559.453 402.856,599.94 389.652,550.614 343.313,550.614 331.044,600.272 317.407,550.614 281.356,550.614 				"/>
			</g>
			<g>
				<polygon fill="#CC0809" points="402.856,599.94 430.893,640.939 353.55,685.589 366.714,734.684 330.561,698.532 
					299.175,716.653 309.785,677.756 281.436,649.457 317.407,649.497 330.34,600.272 330.39,600.453 343.856,649.377 
					390.255,649.588 				"/>
			</g>
			<g>
				<polygon fill="#CC0809" points="425.121,247.335 416.01,280.974 382.19,272.114 382.19,222.738 				"/>
			</g>
			<g>
				<polygon fill="#CC0809" points="415.708,918.846 424.95,952.564 382.19,977.263 382.019,927.786 				"/>
			</g>
			<g>
				<polygon fill="#F7AD23" points="416.01,919.027 483.487,900.724 452.031,955.048 493.695,996.712 532.653,1035.67 
					566.17,1069.087 557.23,1078.319 514.461,1053.63 483.276,1035.62 447.345,1035.62 440.507,1010.097 425.121,952.665 
					424.95,952.564 415.708,918.846 415.949,918.785 				"/>
			</g>
			<g>
				<polygon fill="#F7AD23" points="415.708,281.145 397.818,348.723 366.502,294.329 309.584,309.574 256.366,323.834 
					210.67,336.153 207.14,323.794 249.91,299.105 281.104,281.094 299.065,249.98 324.588,256.819 382.019,272.215 382.19,272.114 
					416.01,280.974 415.949,281.205 				"/>
			</g>
			<g>
				<polygon fill="#F7AD23" points="397.848,851.368 415.708,918.846 382.019,927.786 299.065,950.01 281.104,918.896 
					249.97,900.996 207.14,876.197 210.69,863.988 256.366,876.157 309.584,890.416 366.502,905.662 				"/>
			</g>
			<g>
				<polygon fill="#7A5CBC" points="389.652,550.614 402.856,599.94 390.255,649.588 343.856,649.377 330.39,600.453 
					331.044,600.272 343.313,550.614 				"/>
			</g>
			<g>
				<polygon fill="#2D3540" points="387.721,813.104 397.848,851.368 366.502,905.662 309.584,890.416 294.328,833.498 
					348.331,802.323 				"/>
			</g>
			<g>
				<polygon fill="#2D3540" points="397.818,348.723 387.55,387.541 348.562,397.798 294.328,366.493 309.584,309.584 
					309.584,309.574 366.502,294.329 				"/>
			</g>
			<g>
				<polygon fill="#646A72" points="379.948,415.919 366.714,465.306 330.561,501.458 298.944,483.206 281.195,415.527 
					348.562,397.798 				"/>
			</g>
			<g>
				<polygon fill="#646A72" points="366.714,734.684 379.948,784.071 348.331,802.323 280.843,783.86 299.175,716.653 
					330.561,698.532 				"/>
			</g>
			<g>
				<polygon fill="#CC0809" points="373.2,136.414 370.716,164.371 348.492,164.371 337.731,183.005 312.239,169.057 
					328.399,126.368 				"/>
			</g>
			<g>
				<polygon fill="#CC0809" points="370.002,1035.62 370.676,1064.672 325.623,1072.023 311.927,1028.198 337.379,1016.372 
					348.492,1035.62 				"/>
			</g>
			<g>
				<polygon fill="#F25C05" points="348.562,397.798 281.195,415.527 298.944,483.206 244.952,452.032 203.278,493.695 
					189.029,440.487 176.72,394.841 224.115,383.206 210.67,336.153 256.366,323.834 309.584,309.574 309.584,309.584 
					294.328,366.493 				"/>
			</g>
			<g>
				<polygon fill="#F25C05" points="348.331,802.323 294.328,833.498 309.584,890.416 256.366,876.157 210.69,863.988 
					224.316,817.136 176.84,805.25 189.029,759.513 203.288,706.305 244.952,747.959 299.175,716.653 280.843,783.86 				"/>
			</g>
			<g>
				<polygon fill="#646A72" points="317.407,550.614 331.044,600.272 330.39,600.453 330.34,600.272 317.407,649.497 
					281.436,649.457 231.899,600 281.356,550.614 				"/>
			</g>
			<g>
				<polygon fill="#2D3540" points="309.785,677.756 299.175,716.653 244.952,747.959 203.288,706.305 218.534,649.377 
					281.305,649.457 				"/>
			</g>
			<g>
				<polygon fill="#2D3540" points="298.944,483.206 309.302,522.707 281.225,550.614 218.534,550.614 203.278,493.695 
					244.952,452.032 				"/>
			</g>
			<g>
				<polygon fill="#646A72" points="299.065,249.98 281.104,281.094 249.91,299.105 231.889,231.537 				"/>
			</g>
			<g>
				<polygon fill="#646A72" points="281.104,918.896 299.065,950.01 231.889,968.453 249.97,900.996 				"/>
			</g>
			<g>
				<polygon fill="#F7AD23" points="281.225,550.614 231.718,599.819 207.14,575.121 146.41,514.391 164.371,483.267 
					164.31,447.355 164.371,397.868 176.72,394.841 189.029,440.487 203.278,493.695 218.534,550.614 				"/>
			</g>
			<g>
				<polygon fill="#F7AD23" points="231.718,600.171 281.305,649.457 218.534,649.377 203.288,706.305 189.029,759.513 
					176.84,805.25 164.371,802.122 164.371,752.735 164.371,716.724 146.41,685.61 165.095,666.925 207.14,624.88 207.14,624.688 
					231.718,599.819 231.899,600 				"/>
			</g>
			<g>
				<polygon fill="#CC0809" points="207.14,575.121 231.718,599.819 207.14,624.688 164.371,600 				"/>
			</g>
			<g>
				<polygon fill="#F7AD23" points="224.316,817.136 210.69,863.988 164.471,851.68 176.84,805.25 				"/>
			</g>
			<g>
				<polygon fill="#F7AD23" points="210.67,336.153 224.115,383.206 176.72,394.841 164.27,348.663 				"/>
			</g>
			<g>
				<polygon fill="#7A5CBC" points="207.14,624.688 207.14,624.88 165.095,666.925 146.41,685.61 107.733,618.625 136.816,600.925 
					108.095,580.752 125.432,550.714 146.41,514.391 207.14,575.121 164.371,600 				"/>
			</g>
			<g>
				<polygon fill="#646A72" points="164.371,716.724 164.371,752.735 96.852,734.554 146.41,685.61 				"/>
			</g>
			<g>
				<polygon fill="#646A72" points="164.31,447.355 164.371,483.267 146.41,514.391 96.852,465.437 				"/>
			</g>
			<g>
				<polygon fill="#CC0809" points="85.137,564.622 108.095,580.752 96.983,600 107.733,618.625 82.914,633.729 54.023,598.391 				
					"/>
			</g>
		</g>
		<g>
			<g>
				<path fill="#FFFFFF" d="M649.094,554.817c-0.012,0-0.024,0-0.035,0l-20.585-0.181c-1.45-0.013-2.78-0.804-3.482-2.072
					l-0.05-0.09l-10.354-17.919c-1.109-1.92-0.455-4.376,1.462-5.49l29.022-16.868V346.862L600,334.786l-45.114,12.086
					l-0.059,203.742c-0.001,2.221-1.801,4.022-4.023,4.022h-0.001c-2.221,0-4.023-1.802-4.022-4.023l0.06-206.829
					c0.001-1.82,1.224-3.413,2.982-3.884l49.135-13.164c0.682-0.183,1.4-0.183,2.082,0l49.094,13.154
					c1.759,0.471,2.982,2.065,2.982,3.886v168.77c0.539,1.125,0.51,2.401,0,3.469v34.78c0,1.073-0.428,2.102-1.19,2.857
					C651.172,554.398,650.155,554.817,649.094,554.817z M630.845,546.612l14.227,0.125v-25.235l-21.511,12.503L630.845,546.612z"/>
			</g>
			<g>
				<path fill="#FFFFFF" d="M571.376,554.636c-0.688,0-1.387-0.177-2.024-0.549c-1.919-1.12-2.566-3.583-1.446-5.502l8.511-14.58
					l-28.167-16.258c-1.921-1.116-2.573-3.579-1.456-5.499c1.117-1.921,3.582-2.571,5.499-1.456l0.51,0.292l31.137,17.974
					c0.926,0.535,1.602,1.417,1.876,2.45c0.275,1.034,0.128,2.134-0.411,3.058l-10.55,18.074
					C574.106,553.922,572.76,554.636,571.376,554.636z"/>
			</g>
			<g>
				<path fill="#FFFFFF" d="M600,334.644c-0.35,0-0.7-0.046-1.041-0.137l-49.387-13.234c-1.759-0.471-2.982-2.065-2.982-3.886
					V221.62l-53.937-14.456c-2.146-0.575-3.42-2.781-2.844-4.927c0.575-2.146,2.789-3.414,4.926-2.844l56.918,15.255
					c1.759,0.471,2.982,2.065,2.982,3.886v95.767L600,326.457l45.363-12.156v-95.767c0-1.82,1.223-3.414,2.981-3.886l56.91-15.255
					c2.151-0.574,4.352,0.698,4.927,2.844c0.575,2.146-0.697,4.352-2.843,4.927l-53.929,14.456v95.767
					c0,1.821-1.223,3.414-2.982,3.886l-49.386,13.234C600.7,334.599,600.35,334.644,600,334.644z"/>
			</g>
			<g>
				<path fill="#FFFFFF" d="M599.799,504.908c-0.003,0-0.006,0-0.009,0c-1.434-0.003-2.758-0.769-3.475-2.011l-37.142-64.335
					l-58.063-5.321c-1.554-0.142-2.885-1.171-3.416-2.638c-0.53-1.468-0.164-3.11,0.939-4.213l33.929-33.91l-20.052-34.733
					l-46.108,13.335c-1.762,0.509-3.645-0.238-4.579-1.816c-0.934-1.578-0.683-3.588,0.612-4.888l0.131-0.131l33.885-34.319
					l-16.488-28.559c-0.02-0.033-0.038-0.067-0.056-0.101l-0.033-0.06l-31.327-54.254c-0.91-1.577-0.648-3.568,0.639-4.856
					l80.621-80.621l67.143-67.333c1.567-1.572,4.113-1.577,5.688-0.008l67.548,67.338l80.625,80.625
					c1.289,1.288,1.551,3.283,0.637,4.86l-31.461,54.347c-0.019,0.033-0.036,0.066-0.055,0.098l-16.474,28.446l33.955,33.624
					c1.279,1.266,1.56,3.228,0.69,4.803c-0.87,1.576-2.681,2.381-4.433,1.973l-0.171-0.04c-0.034-0.008-0.069-0.017-0.103-0.026
					l-46.153-12.042l-20.259,34.724l34.443,33.547c1.132,1.103,1.513,2.767,0.974,4.253c-0.539,1.486-1.898,2.518-3.475,2.639
					l-57.62,4.396l-38.035,65.211C602.552,504.148,601.23,504.908,599.799,504.908z M510.392,426.012l51.59,4.727
					c1.301,0.119,2.464,0.863,3.117,1.995l34.718,60.137l35.607-61.047c0.666-1.143,1.851-1.885,3.17-1.984l50.841-3.877
					l-30.314-29.526c-1.323-1.288-1.599-3.313-0.668-4.908l23.381-40.075c0.909-1.558,2.742-2.32,4.49-1.865l34.805,9.081
					l-25.538-25.289c-1.3-1.287-1.567-3.29-0.65-4.874l18.035-31.147c0.018-0.033,0.036-0.065,0.055-0.098l29.908-51.66
					l-78.436-78.437l-64.694-64.493l-64.306,64.489l-78.443,78.443l29.812,51.631c0.02,0.033,0.038,0.067,0.056,0.101l0.032,0.06
					l17.992,31.165c0.905,1.568,0.651,3.549-0.621,4.838l-25.345,25.669l34.317-9.925c1.776-0.513,3.677,0.25,4.601,1.853
					l23.17,40.135c0.91,1.577,0.648,3.569-0.639,4.856L510.392,426.012z"/>
			</g>
			<g>
				<path fill="#FFFFFF" d="M483.276,168.394h-35.931c-1.246,0-2.422-0.577-3.184-1.564c-0.762-0.986-1.023-2.271-0.708-3.476
					l17.618-67.388c0.364-1.395,1.448-2.488,2.839-2.865c1.39-0.377,2.877,0.019,3.897,1.038l49.376,49.377
					c0.884,0.883,1.306,2.127,1.144,3.366c-0.161,1.238-0.89,2.332-1.97,2.958l-31.064,18.011
					C484.681,168.206,483.985,168.394,483.276,168.394z M452.555,160.349h29.639l25.601-14.844l-40.714-40.715L452.555,160.349z"/>
			</g>
			<g>
				<path fill="#FFFFFF" d="M752.655,168.394h-35.932c-0.706,0-1.4-0.186-2.012-0.539l-31.184-18.011
					c-1.083-0.626-1.814-1.721-1.976-2.961c-0.163-1.241,0.261-2.487,1.147-3.37l49.497-49.377c1.02-1.017,2.51-1.412,3.897-1.034
					c1.39,0.378,2.472,1.47,2.836,2.864l17.619,67.388c0.315,1.205,0.054,2.49-0.708,3.476
					C755.077,167.816,753.901,168.394,752.655,168.394z M717.801,160.349h29.643l-14.529-55.569l-40.821,40.722L717.801,160.349z"/>
			</g>
			<g>
				<path fill="#FFFFFF" d="M599.799,170.093c-0.003,0-0.006,0-0.01,0c-1.093-0.002-2.138-0.45-2.894-1.239l-40.378-42.125
					l-40.17,23.117c-1.927,1.109-4.384,0.445-5.493-1.48c-1.108-1.925-0.446-4.385,1.48-5.493l42.9-24.688
					c1.605-0.924,3.631-0.631,4.91,0.703l39.668,41.383l40.067-41.398c1.283-1.325,3.302-1.608,4.9-0.685l42.77,24.688
					c1.924,1.111,2.583,3.571,1.472,5.495c-1.11,1.924-3.571,2.582-5.495,1.473l-40.051-23.119l-40.787,42.143
					C601.932,169.651,600.888,170.093,599.799,170.093z"/>
			</g>
			<g>
				<path fill="#FFFFFF" d="M387.554,391.564c-0.344,0-0.693-0.044-1.041-0.137c-2.146-0.574-3.422-2.778-2.848-4.925
					l28.455-106.553c0.273-1.037,0.949-1.921,1.877-2.458c0.927-0.536,2.034-0.682,3.066-0.4l103.335,28.024l77.124-76.307
					c1.576-1.561,4.122-1.55,5.686,0.027l75.765,76.454l103.964-28.198c1.035-0.283,2.144-0.136,3.073,0.404
					c0.93,0.54,1.605,1.429,1.874,2.47l0.06,0.231l28.393,106.312c0.57,2.147-0.709,4.35-2.856,4.92
					c-2.146,0.57-4.351-0.708-4.92-2.856l-0.171-0.644l-27.246-102.016l-102.326,27.754c-1.395,0.381-2.89-0.022-3.911-1.051
					l-74.584-75.262l-75.914,75.11c-1.019,1.009-2.5,1.399-3.882,1.022l-101.673-27.573l-27.418,102.666
					C390.957,390.377,389.33,391.564,387.554,391.564z"/>
			</g>
			<g>
				<path fill="#FFFFFF" d="M774.876,251.359c-1.776,0-3.401-1.185-3.882-2.983l-22.225-82.965
					c-0.575-2.146,0.699-4.352,2.845-4.926c2.143-0.574,4.351,0.698,4.927,2.845l22.223,82.964c0.576,2.146-0.698,4.352-2.844,4.927
					C775.571,251.314,775.221,251.359,774.876,251.359z"/>
			</g>
			<g>
				<path fill="#FFFFFF" d="M425.123,251.359c-0.345,0-0.695-0.045-1.044-0.138c-2.146-0.575-3.42-2.781-2.844-4.927l20.868-77.901
					h-36.703c-2.221,0-4.023-1.801-4.023-4.023s1.801-4.023,4.023-4.023h41.945c1.25,0,2.43,0.581,3.192,1.574
					c0.761,0.992,1.017,2.282,0.693,3.49l-22.224,82.965C428.524,250.174,426.899,251.359,425.123,251.359z"/>
			</g>
			<g>
				<path fill="#FFFFFF" d="M416.013,284.997c-0.338,0-0.681-0.043-1.022-0.132l-33.819-8.86c-1.77-0.464-3.003-2.062-3.003-3.891
					v-49.376c0-1.435,0.764-2.761,2.005-3.48c1.241-0.72,2.773-0.723,4.017-0.01l42.93,24.598c1.588,0.909,2.362,2.776,1.884,4.542
					l-9.111,33.638C419.408,283.816,417.785,284.997,416.013,284.997z M386.213,269.01l26.957,7.062l7.256-26.79l-34.213-19.603
					V269.01z"/>
			</g>
			<g>
				<path fill="#FFFFFF" d="M367.598,203.359c-0.665,0-1.329-0.165-1.93-0.493l-55.361-30.28c-1.761-0.963-2.542-3.077-1.832-4.953
					l16.161-42.689c0.709-1.873,2.693-2.94,4.642-2.501l44.801,10.046c1.968,0.441,3.306,2.272,3.127,4.281l-2.484,27.957
					c0,0,0,0.001,0,0.001l-3.118,34.966c-0.121,1.351-0.914,2.551-2.111,3.19C368.901,203.201,368.249,203.359,367.598,203.359z
					 M317.239,167.208l46.898,25.652l4.744-53.292l-37.957-8.511L317.239,167.208z M370.716,164.371h0.01H370.716z"/>
			</g>
			<g>
				<path fill="#FFFFFF" d="M532.633,621.933c-0.7,0-1.396-0.183-2.012-0.54l-29.735-17.179c-1.386-0.004-2.73-0.726-3.472-2.008
					l-145.886-84.272c-1.576-0.911-2.344-2.766-1.873-4.525l13.173-49.145c0.183-0.682,0.541-1.304,1.041-1.803l35.941-35.941
					c1.288-1.287,3.281-1.549,4.855-0.639l146.161,84.389c1.243,0.096,2.328,0.758,2.998,1.727l30.185,17.429
					c1.893,1.137,2.515,3.587,1.395,5.49l-10.449,17.739c-0.723,1.228-2.041,1.981-3.466,1.981h-20.877
					c-2.217,0-4.017-1.794-4.023-4.011l-0.093-33.566l-143.181-82.667l-32.997,32.997l-12.095,45.123l143.204,82.723l29.102-16.8
					c0.934-0.538,2.047-0.679,3.08-0.394c1.038,0.286,1.918,0.977,2.443,1.917l0.14,0.251l10.219,17.886
					c0.709,1.242,0.706,2.768-0.01,4.007l-10.288,17.82c-0.533,0.924-1.412,1.598-2.442,1.874
					C533.331,621.888,532.981,621.933,532.633,621.933z M509.469,599.883l21.692,12.532l7.122-12.334l-7.231-12.656L509.469,599.883
					z M554.625,546.591h14.566l7.224-12.265l-21.86-12.619L554.625,546.591z"/>
			</g>
			<g>
				<path fill="#FFFFFF" d="M330.56,505.481c-0.689,0-1.383-0.176-2.01-0.539l-82.936-47.884l-39.491,39.481
					c-1.571,1.571-4.118,1.57-5.689,0c-1.57-1.571-1.57-4.118,0.001-5.689l41.673-41.663c1.288-1.288,3.281-1.55,4.855-0.639
					l82.936,47.883l33.208-33.208l12.156-45.364l-82.946-47.883c-1.577-0.91-2.345-2.766-1.874-4.525l15.255-56.909
					c0.576-2.147,2.782-3.416,4.927-2.844c2.146,0.576,3.419,2.781,2.843,4.927l-14.456,53.926l82.946,47.884
					c1.577,0.91,2.345,2.766,1.874,4.524l-13.234,49.387c-0.183,0.682-0.541,1.304-1.041,1.804l-36.153,36.152
					C332.63,505.078,331.601,505.481,330.56,505.481z"/>
			</g>
			<g>
				<path fill="#FFFFFF" d="M331.043,604.294c-1.809,0-3.398-1.209-3.878-2.958l-12.824-46.701h-95.807
					c-1.821,0-3.414-1.223-3.885-2.981l-29.506-110.127l-24.757-91.818c-0.578-2.145,0.692-4.353,2.837-4.931l92.096-24.829
					l110.142-29.507c1.763-0.473,3.619,0.3,4.527,1.879l31.301,54.365c0.029,0.046,0.057,0.093,0.084,0.14l16.401,28.493
					l46.097-12.596c1.759-0.48,3.613,0.278,4.532,1.849c0.919,1.57,0.67,3.561-0.608,4.857L434.17,403.51l19.945,34.907
					l46.271-13.055c1.516-0.431,3.153,0.072,4.171,1.283c1.017,1.21,1.232,2.903,0.548,4.329l-25.001,52.099l37.448,65.544
					c0.712,1.245,0.706,2.774-0.013,4.015c-0.72,1.24-2.046,2.003-3.479,2.003h-74.285l-33.632,47.624
					c-0.901,1.275-2.454,1.916-3.993,1.64c-1.536-0.274-2.775-1.412-3.179-2.92l-12.405-46.344h-40.102l-11.514,46.601
					c-0.439,1.777-2.022,3.034-3.853,3.057C331.078,604.294,331.061,604.294,331.043,604.294z M343.313,546.591h46.34
					c1.821,0,3.415,1.223,3.886,2.982l10.983,41.034l29.884-42.315c0.753-1.067,1.979-1.701,3.285-1.701h69.437l-35.057-61.359
					c-0.656-1.148-0.706-2.544-0.135-3.736l22.061-45.972l-40.723,11.489c-1.777,0.501-3.669-0.273-4.584-1.876l-23.019-40.286
					c-0.896-1.566-0.638-3.537,0.629-4.821l25.264-25.604l-34.664,9.472c-1.767,0.483-3.634-0.287-4.547-1.873l-17.936-31.155
					c-0.028-0.046-0.057-0.093-0.084-0.14l-29.774-51.716l-107.151,28.706l-88.206,23.78l23.712,87.94l28.708,107.151h95.787
					c1.811,0,3.399,1.211,3.879,2.957l9.552,34.784l8.569-34.684C339.851,547.853,341.463,546.591,343.313,546.591z"/>
			</g>
			<g>
				<path fill="#FFFFFF" d="M146.41,518.414c-1.051,0-2.069-0.412-2.827-1.161l-49.557-48.954c-1.025-1.013-1.43-2.497-1.062-3.891
					c0.369-1.394,1.455-2.483,2.847-2.856l67.458-18.081c1.205-0.323,2.495-0.067,3.487,0.692c0.992,0.76,1.574,1.938,1.576,3.187
					l0.06,35.911c0.001,0.708-0.185,1.404-0.538,2.017l-17.96,31.124c-0.624,1.08-1.712,1.809-2.946,1.976
					C146.769,518.402,146.589,518.414,146.41,518.414z M104.671,467.505l40.86,40.362l14.815-25.676l-0.049-29.596L104.671,467.505z
					"/>
			</g>
			<g>
				<path fill="#FFFFFF" d="M249.91,303.128c-0.522,0-1.047-0.102-1.542-0.307c-1.156-0.48-2.022-1.47-2.345-2.679l-18.021-67.568
					c-0.371-1.392,0.03-2.876,1.053-3.891c1.023-1.014,2.512-1.403,3.899-1.024l67.176,18.443c1.202,0.33,2.183,1.198,2.656,2.351
					s0.386,2.46-0.238,3.539l-17.961,31.115c-0.353,0.611-0.86,1.119-1.472,1.472l-31.194,18.011
					C251.301,302.947,250.607,303.128,249.91,303.128z M237.581,237.271l14.863,55.726l25.715-14.848l14.818-25.67L237.581,237.271z
					"/>
			</g>
			<g>
				<path fill="#FFFFFF" d="M164.31,451.378c-0.002,0-0.003,0-0.005,0c-2.221-0.002-4.021-1.806-4.018-4.027l0.06-49.487
					c0.002-1.851,1.267-3.461,3.065-3.902l55.687-13.666l-15.828-55.397c-0.507-1.775,0.259-3.666,1.857-4.589l42.77-24.688
					c1.924-1.11,4.385-0.452,5.495,1.473c1.111,1.924,0.452,4.384-1.472,5.495l-40.051,23.118l16.113,56.393
					c0.301,1.051,0.16,2.179-0.388,3.124c-0.549,0.945-1.459,1.627-2.52,1.888l-56.686,13.912l-0.056,46.336
					C168.33,449.58,166.53,451.378,164.31,451.378z"/>
			</g>
			<g>
				<path fill="#FFFFFF" d="M309.785,681.778c-1.028,0-2.056-0.392-2.842-1.176l-78.066-77.935
					c-0.758-0.756-1.183-1.782-1.182-2.852c0.001-1.07,0.428-2.095,1.187-2.849l75.942-75.479l-27.52-104.939
					c-0.564-2.147,0.72-4.345,2.868-4.91l104.09-27.391l27.559-104.131c0.565-2.128,2.737-3.409,4.868-2.873l0.241,0.06
					l106.378,28.604c2.141,0.592,3.398,2.807,2.806,4.949c-0.591,2.14-2.807,3.399-4.949,2.806l-0.654-0.181l-101.945-27.407
					L391.44,388.569c-0.37,1.4-1.465,2.493-2.866,2.861l-102.469,26.964l27.088,103.292c0.363,1.387-0.038,2.863-1.056,3.873
					l-74.72,74.266l75.21,75.083c1.572,1.57,1.574,4.116,0.005,5.689C311.847,681.384,310.815,681.778,309.785,681.778z"/>
			</g>
			<g>
				<path fill="#FFFFFF" d="M382.023,276.238c-0.346,0-0.695-0.045-1.045-0.138l-82.954-22.234
					c-1.208-0.324-2.197-1.191-2.675-2.346c-0.479-1.155-0.393-2.467,0.233-3.551l49.426-85.609
					c0.719-1.245,2.047-2.011,3.483-2.011h56.909c2.221,0,4.023,1.801,4.023,4.023s-1.801,4.023-4.023,4.023h-54.587l-45.644,79.058
					l77.892,20.878c2.146,0.576,3.419,2.781,2.843,4.927C385.424,275.053,383.798,276.238,382.023,276.238z"/>
			</g>
			<g>
				<path fill="#FFFFFF" d="M207.14,579.143c-1.029,0-2.059-0.393-2.844-1.178l-57.023-57.023l-18.357,31.784
					c-1.111,1.922-3.57,2.582-5.495,1.472c-1.924-1.111-2.583-3.571-1.472-5.495l20.978-36.323c0.626-1.083,1.719-1.813,2.959-1.976
					c1.238-0.163,2.485,0.26,3.368,1.144l60.73,60.73c1.571,1.571,1.571,4.118,0,5.689
					C209.199,578.75,208.169,579.143,207.14,579.143z"/>
			</g>
			<g>
				<path fill="#FFFFFF" d="M207.139,628.711c-0.688,0-1.382-0.176-2.01-0.539l-42.77-24.688c-1.242-0.717-2.009-2.042-2.011-3.477
					c-0.002-1.435,0.76-2.763,1.999-3.484l42.77-24.88c1.582-0.919,3.584-0.658,4.874,0.64l24.577,24.698
					c1.559,1.565,1.562,4.094,0.01,5.664l-24.577,24.869C209.225,628.301,208.188,628.711,207.139,628.711z M172.394,599.987
					l34.068,19.665l19.59-19.823l-19.572-19.67L172.394,599.987z"/>
			</g>
			<g>
				<path fill="#FFFFFF" d="M82.917,637.752c-1.173,0-2.328-0.512-3.117-1.477l-28.892-35.338c-1.268-1.551-1.202-3.799,0.156-5.272
					l31.114-33.769c1.367-1.484,3.621-1.724,5.271-0.566l22.959,16.13l0,0l28.721,20.173c1.111,0.78,1.753,2.068,1.709,3.424
					c-0.045,1.356-0.77,2.599-1.93,3.304l-53.902,32.804C84.355,637.561,83.633,637.752,82.917,637.752z M59.347,598.549
					l24.466,29.924l45.662-27.789l-23.692-16.64c0,0,0,0,0,0l-20.076-14.105L59.347,598.549z"/>
			</g>
			<g>
				<path fill="#FFFFFF" d="M402.686,774.678c-1.041,0-2.07-0.404-2.845-1.178l-35.972-35.971c-0.5-0.499-0.858-1.121-1.041-1.802
					l-13.164-49.096c-0.471-1.758,0.297-3.615,1.874-4.525l146.178-84.392c0.708-1.026,1.821-1.629,2.99-1.723l30.161-17.414
					c1.936-1.092,4.385-0.408,5.477,1.523l10.137,17.921c0.702,1.24,0.694,2.759-0.018,3.993l-10.416,18.031
					c-0.526,0.935-1.403,1.621-2.438,1.906c-1.037,0.285-2.14,0.145-3.07-0.389l-29.116-16.698l-143.19,82.667l12.085,45.072
					l33.028,33.028l143.243-82.644v-33.608c0-2.221,1.801-4.023,4.023-4.023h0.292l20.656,0.1c1.43,0.007,2.749,0.773,3.464,2.011
					l10.287,17.82c0.534,0.924,0.679,2.023,0.402,3.053c-0.276,1.031-0.951,1.909-1.875,2.442l-29.746,17.161
					c-0.695,1.194-1.986,1.997-3.466,2.002L404.696,774.14C404.068,774.501,403.375,774.678,402.686,774.678z M554.636,653.418
					v24.923l21.697-12.517l-7.121-12.335L554.636,653.418z M509.484,600.211l21.579,12.375l7.284-12.607l-7.008-12.388
					L509.484,600.211z"/>
			</g>
			<g>
				<path fill="#FFFFFF" d="M309.581,894.44c-1.776,0-3.401-1.185-3.882-2.983l-15.255-56.918c-0.471-1.758,0.297-3.614,1.874-4.524
					l82.946-47.884l-12.156-45.363l-33.208-33.207l-82.936,47.882c-1.577,0.909-3.569,0.647-4.855-0.638l-41.663-41.653l5.678-5.699
					l39.491,39.48l82.936-47.882c1.576-0.91,3.568-0.649,4.855,0.639l36.153,36.153c0.5,0.499,0.858,1.121,1.041,1.803
					l13.234,49.386c0.471,1.759-0.298,3.614-1.874,4.524l-82.946,47.884l14.456,53.937c0.576,2.146-0.698,4.352-2.844,4.926
					C310.276,894.395,309.926,894.44,309.581,894.44z"/>
			</g>
			<g>
				<path fill="#FFFFFF" d="M366.502,909.684c-0.346,0-0.694-0.044-1.041-0.136l-110.136-29.506l-91.889-24.475
					c-1.031-0.275-1.911-0.948-2.445-1.871c-0.535-0.923-0.682-2.021-0.407-3.051l24.557-92.167l29.506-110.141
					c0.471-1.759,2.065-2.982,3.886-2.982c0.002,0,0.003,0,0.005,0l95.768,0.117l12.142-46.221c0.463-1.758,2.046-2.988,3.863-3.001
					c0.01,0,0.019,0,0.027,0c1.807,0,3.393,1.205,3.876,2.948l0.05,0.181l12.659,45.99l40.205,0.183l11.828-46.601
					c0.389-1.532,1.639-2.695,3.196-2.971c1.556-0.278,3.13,0.384,4.023,1.69l32.617,47.695l75.485,0.342
					c1.434,0.006,2.756,0.776,3.47,2.019c0.714,1.243,0.712,2.773-0.005,4.015l-37.143,64.336l24.429,52.945
					c0.654,1.417,0.429,3.085-0.576,4.278c-1.007,1.194-2.61,1.696-4.119,1.292l-46.334-12.433l-20.051,34.732l34.596,33.265
					c1.328,1.277,1.618,3.292,0.706,4.892c-0.912,1.6-2.796,2.377-4.569,1.885l-0.181-0.05l-46.614-12.182l-47.904,82.973
					C369.255,908.94,367.913,909.684,366.502,909.684z M169.394,848.828l88.007,23.442l107.161,28.708l47.894-82.956
					c0.905-1.568,2.743-2.34,4.501-1.881l34.89,9.118l-25.743-24.753c-1.334-1.283-1.62-3.31-0.695-4.911l23.17-40.134
					c0.91-1.577,2.764-2.349,4.526-1.874l41.025,11.008l-21.706-47.04c-0.548-1.187-0.485-2.565,0.169-3.698l34.719-60.138
					l-70.664-0.32c-1.321-0.006-2.555-0.66-3.302-1.751l-28.781-42.085l-10.41,41.014c-0.453,1.784-2.059,3.033-3.899,3.033
					c-0.006,0-0.012,0-0.019,0l-46.399-0.211c-1.803-0.008-3.381-1.216-3.859-2.955l-9.548-34.686l-9.131,34.762
					c-0.465,1.768-2.063,3-3.891,3c-0.001,0-0.003,0-0.005,0l-95.783-0.116l-28.706,107.151L169.394,848.828z"/>
			</g>
			<g>
				<path fill="#FFFFFF" d="M231.889,972.476c-1.049,0-2.072-0.41-2.835-1.17c-1.023-1.016-1.423-2.502-1.05-3.894l18.081-67.458
					c0.323-1.207,1.188-2.195,2.342-2.674c1.154-0.478,2.464-0.396,3.548,0.228l31.134,17.9c0.614,0.354,1.124,0.862,1.478,1.476
					l17.961,31.115c0.624,1.079,0.711,2.386,0.238,3.539c-0.473,1.153-1.454,2.021-2.656,2.351l-67.176,18.443
					C232.602,972.429,232.245,972.476,231.889,972.476z M252.501,907.091l-14.91,55.626l55.386-15.206l-14.816-25.666
					L252.501,907.091z"/>
			</g>
			<g>
				<path fill="#FFFFFF" d="M164.37,756.758c-0.35,0-0.701-0.045-1.046-0.138l-67.518-18.181c-1.391-0.374-2.476-1.464-2.844-2.858
					c-0.368-1.393,0.038-2.875,1.063-3.888l49.558-48.945c0.886-0.875,2.131-1.295,3.364-1.124c1.235,0.166,2.324,0.896,2.946,1.975
					l17.96,31.114c0.354,0.612,0.539,1.305,0.539,2.011v36.011c0,1.251-0.582,2.432-1.576,3.193
					C166.108,756.472,165.245,756.758,164.37,756.758z M104.665,732.492l55.683,14.994v-29.685l-14.817-25.669L104.665,732.492z"/>
			</g>
			<g>
				<path fill="#FFFFFF" d="M249.966,905.019c-0.684,0-1.377-0.175-2.011-0.542l-42.83-24.799c-1.602-0.927-2.364-2.827-1.847-4.605
					l16.01-55.05l-55.896-13.999c-1.788-0.449-3.043-2.057-3.043-3.902v-49.387c0-2.221,1.801-4.023,4.023-4.023
					s4.023,1.801,4.023,4.023v46.249l56.901,14.25c1.061,0.265,1.967,0.951,2.511,1.898c0.544,0.949,0.68,2.077,0.374,3.127
					l-16.296,56.035l40.102,23.22c1.923,1.114,2.579,3.575,1.466,5.497C252.705,904.299,251.354,905.019,249.966,905.019z"/>
			</g>
			<g>
				<path fill="#FFFFFF" d="M415.705,922.869c-1.782,0-3.409-1.193-3.886-2.994l-27.394-103.503L279.781,787.74
					c-2.142-0.586-3.404-2.797-2.82-4.939l28.327-103.843l-76.406-75.933c-0.774-0.768-1.202-1.818-1.187-2.908
					c0.016-1.09,0.472-2.128,1.267-2.875l0.137-0.13l77.875-77.753c1.587-1.553,4.134-1.524,5.688,0.064
					c1.553,1.589,1.524,4.135-0.065,5.689l-0.483,0.472l-74.692,74.586l75.198,74.732c1.027,1.021,1.427,2.515,1.046,3.912
					L285.782,781.04l103.002,28.183c1.384,0.379,2.46,1.465,2.827,2.851l26.955,101.843l102.625-27.586
					c2.142-0.573,4.352,0.694,4.929,2.841c0.576,2.145-0.695,4.352-2.841,4.929l-106.583,28.645
					C416.364,922.829,416.032,922.869,415.705,922.869z"/>
			</g>
			<g>
				<path fill="#FFFFFF" d="M146.41,689.632c-0.175,0-0.35-0.011-0.525-0.034c-1.239-0.163-2.332-0.894-2.958-1.977l-49.428-85.61
					c-0.718-1.244-0.718-2.777,0-4.022l28.449-49.286c1.11-1.923,3.569-2.585,5.495-1.473c1.924,1.111,2.584,3.571,1.473,5.495
					L101.628,600l45.645,79.058l57.023-57.023c1.569-1.57,4.117-1.57,5.688,0c1.571,1.571,1.571,4.118,0,5.689l-60.73,60.73
					C148.495,689.213,147.47,689.632,146.41,689.632z"/>
			</g>
			<g>
				<path fill="#FFFFFF" d="M320.036,990.357c-1.391,0-2.743-0.722-3.487-2.012l-20.967-36.323
					c-0.626-1.083-0.711-2.395-0.233-3.551c0.478-1.155,1.467-2.022,2.675-2.345l82.955-22.225c2.145-0.579,4.352,0.698,4.926,2.844
					c0.576,2.146-0.698,4.352-2.844,4.926l-77.891,20.869l18.346,31.782c1.111,1.924,0.452,4.384-1.472,5.495
					C321.41,990.183,320.718,990.357,320.036,990.357z"/>
			</g>
			<g>
				<path fill="#FFFFFF" d="M382.191,981.285c-0.692,0-1.384-0.179-2.005-0.535c-1.243-0.715-2.012-2.039-2.017-3.474l-0.171-49.477
					c-0.006-1.83,1.223-3.432,2.99-3.902l33.689-8.94c2.133-0.567,4.327,0.693,4.911,2.824l9.241,33.719
					c0.484,1.764-0.284,3.632-1.867,4.547l-42.759,24.698C383.58,981.106,382.885,981.285,382.191,981.285z M386.053,930.877
					l0.137,39.431l34.06-19.674l-7.365-26.877L386.053,930.877z"/>
			</g>
			<g>
				<path fill="#FFFFFF" d="M325.621,1076.045c-1.732,0-3.305-1.121-3.837-2.822l-13.697-43.825
					c-0.601-1.925,0.316-3.998,2.145-4.848l25.452-11.827h0.001l31.838-14.782c1.23-0.573,2.665-0.484,3.819,0.233
					c1.152,0.717,1.865,1.966,1.896,3.323l1.458,63.082c0.046,2.006-1.394,3.74-3.373,4.064l-45.052,7.351
					C326.053,1076.029,325.836,1076.045,325.621,1076.045z M316.818,1030.362l11.604,37.129l38.151-6.225l-1.235-53.44
					L316.818,1030.362z"/>
			</g>
			<g>
				<path fill="#FFFFFF" d="M600,873.401c-0.35,0-0.7-0.046-1.041-0.138l-49.095-13.154c-1.759-0.47-2.982-2.064-2.982-3.885
					V687.443c-0.538-1.123-0.509-2.397,0-3.465v-34.782c0-1.073,0.429-2.102,1.19-2.857c0.762-0.755,1.832-1.17,2.868-1.166
					l20.585,0.181c1.5,0.013,2.868,0.86,3.548,2.195l0.004,0.007l10.266,17.776c0.574,0.924,0.75,2.041,0.488,3.097
					c-0.263,1.056-0.943,1.96-1.884,2.506l-29.021,16.858v165.344L600,865.213l45.113-12.095l0.06-203.742
					c0.001-2.221,1.801-4.022,4.023-4.022h0.001c2.221,0,4.023,1.802,4.022,4.023l-0.061,206.828
					c-0.001,1.821-1.223,3.413-2.981,3.884l-49.135,13.173C600.7,873.355,600.351,873.401,600,873.401z M554.927,653.254v25.237
					l21.506-12.493l-7.285-12.619L554.927,653.254z"/>
			</g>
			<g>
				<path fill="#FFFFFF" d="M649.725,689.753c-0.688,0-1.386-0.177-2.023-0.548l-0.5-0.287l-31.142-17.976
					c-0.935-0.54-1.614-1.432-1.884-2.478c-0.27-1.045-0.108-2.155,0.448-3.08l0.151-0.251l10.371-17.783
					c1.119-1.919,3.585-2.566,5.501-1.449c1.92,1.12,2.568,3.583,1.449,5.502l-8.511,14.593l28.171,16.26
					c1.919,1.12,2.567,3.583,1.448,5.502C652.456,689.039,651.109,689.753,649.725,689.753z"/>
			</g>
			<g>
				<path fill="#FFFFFF" d="M706.298,1000.735c-0.345,0-0.695-0.044-1.044-0.138l-56.909-15.246
					c-1.759-0.47-2.982-2.064-2.982-3.885v-95.767L600,873.543l-45.364,12.156v95.767c0,1.821-1.223,3.415-2.982,3.886
					l-56.918,15.246c-2.144,0.573-4.352-0.699-4.927-2.845c-0.574-2.146,0.699-4.352,2.845-4.927l53.937-14.446v-95.767
					c0-1.821,1.223-3.415,2.982-3.885l49.387-13.234c0.682-0.183,1.4-0.183,2.082,0l49.386,13.234
					c1.759,0.47,2.982,2.064,2.982,3.885v95.767l53.928,14.447c2.146,0.575,3.419,2.78,2.844,4.926
					C709.699,999.55,708.074,1000.735,706.298,1000.735z"/>
			</g>
			<g>
				<path fill="#FFFFFF" d="M600.201,1107.039c-1.065,0-2.086-0.422-2.84-1.174l-67.549-67.347l-80.625-80.626
					c-1.289-1.288-1.551-3.282-0.637-4.859l47.991-82.881l-33.965-33.625c-1.292-1.281-1.565-3.268-0.665-4.849
					c0.901-1.581,2.748-2.361,4.511-1.901l46.333,12.082l20.26-34.735l-34.443-33.536c-1.133-1.103-1.515-2.767-0.976-4.254
					c0.539-1.486,1.899-2.519,3.476-2.639l57.619-4.404l38.037-65.203c0.721-1.236,2.045-1.996,3.475-1.996c0.003,0,0.006,0,0.009,0
					c1.434,0.003,2.758,0.769,3.475,2.011l37.142,64.335l58.061,5.312c1.555,0.142,2.885,1.171,3.417,2.638
					c0.53,1.467,0.165,3.109-0.939,4.213l-33.929,33.918l20.052,34.734l46.109-13.334c1.756-0.509,3.639,0.235,4.574,1.808
					c0.936,1.573,0.691,3.581-0.595,4.883l-34.028,34.454l16.467,28.529c0.031,0.049,0.062,0.099,0.091,0.15l31.345,54.294
					c0.91,1.576,0.648,3.568-0.638,4.855l-80.622,80.622l-67.141,67.342c-0.753,0.755-1.776,1.18-2.843,1.182
					C600.205,1107.039,600.203,1107.039,600.201,1107.039z M457.061,954.39l78.435,78.436l64.696,64.502l64.306-64.498
					l78.443-78.443l-29.782-51.582c-0.032-0.049-0.063-0.1-0.092-0.151l-18.021-31.225c-0.904-1.568-0.65-3.548,0.623-4.837
					l25.341-25.658l-34.314,9.924c-1.776,0.512-3.677-0.251-4.601-1.853l-23.17-40.135c-0.91-1.577-0.648-3.569,0.639-4.856
					l30.042-30.032l-51.589-4.72c-1.301-0.119-2.464-0.863-3.117-1.995l-34.718-60.138l-35.608,61.038
					c-0.666,1.141-1.849,1.883-3.166,1.984l-50.843,3.888l30.312,29.515c1.324,1.289,1.6,3.313,0.669,4.909l-23.381,40.085
					c-0.908,1.558-2.743,2.322-4.49,1.865l-34.808-9.076l25.54,25.284c1.3,1.287,1.567,3.291,0.65,4.875L457.061,954.39z"/>
			</g>
			<g>
				<path fill="#FFFFFF" d="M735.036,1107.039c-1.053,0-2.08-0.413-2.845-1.178l-49.376-49.386
					c-0.883-0.884-1.305-2.127-1.143-3.365s0.89-2.331,1.97-2.958l31.064-18.011c0.614-0.355,1.309-0.543,2.018-0.543h35.932
					c1.246,0,2.422,0.578,3.184,1.564c0.762,0.986,1.023,2.27,0.708,3.475l-17.619,67.397c-0.364,1.395-1.448,2.488-2.839,2.865
					C735.741,1106.993,735.387,1107.039,735.036,1107.039z M692.203,1054.486l40.715,40.724l14.528-55.568h-29.641L692.203,1054.486
					z"/>
			</g>
			<g>
				<path fill="#FFFFFF" d="M464.964,1107.039c-0.352,0-0.706-0.046-1.055-0.141c-1.391-0.378-2.473-1.471-2.837-2.865
					l-17.618-67.397c-0.315-1.206-0.054-2.49,0.708-3.475c0.762-0.987,1.938-1.564,3.184-1.564h35.931
					c0.706,0,1.4,0.186,2.012,0.539l31.184,18.011c1.083,0.626,1.814,1.721,1.976,2.961c0.163,1.24-0.261,2.487-1.147,3.37
					l-49.497,49.386C467.041,1106.627,466.014,1107.039,464.964,1107.039z M452.554,1039.642l14.529,55.578l40.821-40.73
					l-25.706-14.848H452.554z"/>
			</g>
			<g>
				<path fill="#FFFFFF" d="M642.761,1082.351c-1.069,0-2.126-0.425-2.906-1.239l-39.667-41.393l-40.067,41.398
					c-1.284,1.325-3.305,1.609-4.901,0.685l-42.77-24.688c-1.924-1.11-2.583-3.57-1.472-5.495c1.11-1.924,3.571-2.585,5.495-1.472
					l40.051,23.119l40.788-42.143c0.759-0.786,1.801-1.241,2.9-1.226c1.093,0.003,2.138,0.45,2.894,1.239l40.377,42.133
					l40.169-23.126c1.926-1.106,4.386-0.446,5.494,1.479c1.108,1.926,0.446,4.385-1.479,5.494l-42.9,24.698
					C644.139,1082.175,643.448,1082.351,642.761,1082.351z"/>
			</g>
			<g>
				<path fill="#FFFFFF" d="M783.99,923.049c-0.353,0-0.707-0.046-1.053-0.14l-103.702-28.137c-2.144-0.582-3.411-2.792-2.828-4.936
					c0.582-2.144,2.794-3.407,4.936-2.828l99.799,27.078l27.421-102.674c0.573-2.147,2.778-3.424,4.924-2.848
					c2.147,0.573,3.422,2.777,2.848,4.924l-28.441,106.507c-0.261,1.05-0.933,1.951-1.866,2.499
					C785.406,922.86,784.7,923.049,783.99,923.049z"/>
			</g>
			<g>
				<path fill="#FFFFFF" d="M599.648,972.346c-1.035,0-2.07-0.398-2.857-1.191l-75.764-76.443l-103.964,28.197
					c-1.04,0.283-2.154,0.135-3.085-0.411c-0.932-0.545-1.605-1.442-1.869-2.489l-0.061-0.242l-28.389-106.299
					c-0.562-2.15,0.725-4.348,2.874-4.91c2.155-0.564,4.348,0.725,4.91,2.873l0.171,0.653l27.243,102.002l102.325-27.753
					c1.396-0.378,2.891,0.022,3.91,1.05l74.584,75.253l75.914-75.11c1.581-1.563,4.128-1.547,5.689,0.03
					c1.562,1.58,1.549,4.127-0.03,5.689l-78.771,77.936C601.693,971.959,600.67,972.346,599.648,972.346z"/>
			</g>
			<g>
				<path fill="#FFFFFF" d="M447.346,1039.642h-98.854c-1.437,0-2.765-0.767-3.483-2.011l-28.459-49.287
					c-1.111-1.924-0.452-4.384,1.472-5.495c1.924-1.113,4.383-0.452,5.495,1.472l27.298,47.275h91.29l-20.868-77.891
					c-0.576-2.146,0.698-4.352,2.844-4.926c2.144-0.58,4.352,0.697,4.926,2.844l22.225,82.955c0.324,1.208,0.068,2.497-0.693,3.489
					C449.775,1039.061,448.596,1039.642,447.346,1039.642z"/>
			</g>
			<g>
				<path fill="#FFFFFF" d="M794.6,1039.642h-41.945c-1.25,0-2.43-0.581-3.192-1.573c-0.761-0.993-1.017-2.282-0.693-3.49
					l22.224-82.955c0.575-2.147,2.781-3.425,4.926-2.844c2.146,0.575,3.42,2.78,2.844,4.926l-20.867,77.891H794.6
					c2.221,0,4.023,1.801,4.023,4.023S796.821,1039.642,794.6,1039.642z"/>
			</g>
			<g>
				<path fill="#FFFFFF" d="M817.81,981.285c-0.69,0-1.38-0.178-1.999-0.532l-42.931-24.598c-1.588-0.909-2.362-2.776-1.884-4.542
					l9.112-33.639c0.577-2.131,2.767-3.398,4.901-2.84l33.819,8.849c1.77,0.464,3.004,2.062,3.004,3.892v49.387
					c0,1.435-0.764,2.761-2.005,3.48C819.203,981.105,818.506,981.285,817.81,981.285z M779.573,950.719l34.214,19.603v-39.34
					l-26.957-7.053L779.573,950.719z"/>
			</g>
			<g>
				<path fill="#FFFFFF" d="M871.603,1077.656c-0.292,0-0.587-0.032-0.883-0.098l-44.811-10.056
					c-1.968-0.442-3.305-2.273-3.126-4.283l5.612-62.923c0.121-1.351,0.914-2.55,2.111-3.191c1.197-0.638,2.636-0.632,3.825,0.019
					l55.361,30.281c1.76,0.962,2.542,3.076,1.832,4.953l-16.16,42.699C874.761,1076.646,873.243,1077.655,871.603,1077.656z
					 M831.11,1060.423l37.966,8.52l13.685-36.161l-46.898-25.652l-2.571,28.847l0,0L831.11,1060.423z M829.284,1035.62h0.01H829.284
					z"/>
			</g>
			<g>
				<path fill="#FFFFFF" d="M797.344,774.648c-0.689,0-1.383-0.177-2.01-0.539l-146.161-84.388
					c-1.244-0.096-2.328-0.758-2.998-1.728l-30.089-17.373c-0.941-0.53-1.628-1.417-1.909-2.46c-0.28-1.043-0.129-2.155,0.419-3.085
					l10.448-17.739c0.723-1.228,2.041-1.981,3.466-1.981h20.877c2.217,0,4.017,1.794,4.023,4.011l0.094,33.566l143.181,82.667
					l32.996-32.996l12.096-45.113l-143.205-82.732l-29.101,16.799c-1.914,1.104-4.362,0.458-5.481-1.449l-0.141-0.241
					l-10.261-17.961c-0.709-1.242-0.706-2.767,0.009-4.005l10.288-17.83c0.533-0.925,1.412-1.599,2.443-1.875
					c1.03-0.276,2.129-0.132,3.053,0.403l29.728,17.179c1.382,0.002,2.725,0.716,3.472,1.996c0.003,0.004,0.005,0.009,0.008,0.013
					l145.885,84.282c1.576,0.91,2.344,2.766,1.873,4.525l-13.174,49.135c-0.183,0.682-0.541,1.303-1.041,1.802l-35.941,35.94
					C799.415,774.244,798.385,774.648,797.344,774.648z M623.587,665.66l21.858,12.621l-0.07-24.882h-14.567L623.587,665.66z
					 M661.718,599.92l7.226,12.649l21.584-12.459l-21.688-12.533L661.718,599.92z"/>
			</g>
			<g>
				<path fill="#FFFFFF" d="M890.419,894.44c-0.346,0-0.695-0.044-1.044-0.138c-2.146-0.575-3.42-2.78-2.844-4.926l14.456-53.937
					l-82.947-47.884c-1.577-0.91-2.345-2.766-1.874-4.524l13.234-49.386c0.183-0.683,0.541-1.304,1.041-1.803l36.153-36.153
					c1.287-1.287,3.28-1.548,4.855-0.639l82.936,47.883l39.482-39.472c1.571-1.573,4.124-1.576,5.693-0.004
					c1.571,1.571,1.576,4.113,0.005,5.683l-41.674,41.664c-1.289,1.287-3.281,1.547-4.855,0.638L870.1,703.559l-33.208,33.207
					l-12.156,45.363l82.947,47.884c1.576,0.909,2.345,2.766,1.874,4.524l-15.255,56.918
					C893.82,893.254,892.195,894.44,890.419,894.44z"/>
			</g>
			<g>
				<path fill="#FFFFFF" d="M833.497,909.684c-1.413,0-2.756-0.746-3.486-2.015l-31.291-54.351
					c-0.032-0.051-0.064-0.102-0.094-0.155l-16.4-28.492l-46.098,12.596c-1.764,0.481-3.623-0.283-4.539-1.86
					c-0.916-1.578-0.656-3.575,0.634-4.864l0.131-0.131l33.477-33.931l-19.945-34.907l-46.272,13.055
					c-1.517,0.43-3.153-0.072-4.171-1.283c-1.017-1.21-1.232-2.904-0.548-4.329l25.002-52.099l-37.448-65.545
					c-0.712-1.245-0.706-2.774,0.013-4.015c0.72-1.24,2.046-2.003,3.479-2.003h74.284l33.633-47.625
					c0.901-1.274,2.455-1.91,3.993-1.64c1.536,0.274,2.775,1.413,3.179,2.92l12.405,46.344h40.102l11.514-46.601
					c0.438-1.776,2.02-3.032,3.85-3.057c1.821-0.049,3.445,1.187,3.932,2.95l0.05,0.181l12.776,46.527h95.807
					c1.821,0,3.415,1.223,3.886,2.982l29.504,110.136l24.758,91.808c0.278,1.029,0.135,2.128-0.398,3.052
					c-0.531,0.925-1.409,1.601-2.439,1.879l-92.096,24.829l-110.143,29.507C834.192,909.64,833.842,909.684,833.497,909.684z
					 M805.552,849.071l0.022,0.034c0.032,0.051,0.064,0.102,0.094,0.154l29.773,51.716l107.152-28.705l88.206-23.781l-23.712-87.931
					L978.38,653.399h-95.787c-1.811,0-3.399-1.211-3.879-2.958l-9.552-34.785l-8.569,34.684c-0.443,1.796-2.054,3.058-3.905,3.058
					h-46.34c-1.821,0-3.415-1.223-3.886-2.983l-10.983-41.034l-29.885,42.315c-0.753,1.067-1.979,1.701-3.285,1.701h-69.436
					l35.057,61.359c0.656,1.148,0.706,2.544,0.135,3.736l-22.062,45.972l40.724-11.489c1.779-0.501,3.669,0.273,4.584,1.876
					l23.019,40.285c0.896,1.566,0.638,3.536-0.629,4.821l-25.263,25.603l34.663-9.471c1.77-0.482,3.635,0.288,4.547,1.874
					L805.552,849.071z"/>
			</g>
			<g>
				<path fill="#FFFFFF" d="M1035.69,756.657c-0.875,0-1.736-0.286-2.446-0.829c-0.992-0.76-1.574-1.938-1.576-3.187l-0.061-35.911
					c-0.001-0.708,0.185-1.404,0.539-2.018l17.961-31.114c0.623-1.079,1.711-1.808,2.946-1.975c1.232-0.167,2.478,0.249,3.364,1.124
					l49.558,48.945c1.026,1.012,1.431,2.497,1.063,3.891c-0.369,1.393-1.455,2.483-2.848,2.856l-67.458,18.081
					C1036.388,756.612,1036.037,756.657,1035.69,756.657z M1039.653,717.798l0.05,29.596l55.625-14.91l-40.859-40.353
					L1039.653,717.798z"/>
			</g>
			<g>
				<path fill="#FFFFFF" d="M968.101,972.476c-0.355,0-0.713-0.047-1.065-0.143L899.87,953.89c-1.201-0.33-2.182-1.198-2.656-2.351
					c-0.473-1.153-0.386-2.46,0.238-3.539l17.96-31.115c0.353-0.611,0.86-1.12,1.472-1.472l31.195-18.011
					c1.083-0.626,2.397-0.711,3.553-0.232s2.023,1.47,2.345,2.679l18.011,67.569c0.371,1.392-0.03,2.876-1.054,3.891
					C970.172,972.067,969.148,972.476,968.101,972.476z M907.023,947.51l55.387,15.209l-14.855-55.726L921.84,921.84L907.023,947.51
					z"/>
			</g>
			<g>
				<path fill="#FFFFFF" d="M950.094,904.908c-1.391,0-2.743-0.722-3.487-2.012c-1.111-1.924-0.452-4.385,1.472-5.495l40.05-23.119
					l-16.113-56.394c-0.301-1.051-0.16-2.179,0.389-3.124c0.549-0.946,1.458-1.627,2.52-1.888l56.685-13.902l0.057-46.345
					c0.003-2.219,1.803-4.018,4.022-4.018c0.002,0,0.003,0,0.005,0c2.221,0.003,4.021,1.806,4.018,4.027l-0.061,49.497
					c-0.002,1.851-1.267,3.461-3.065,3.902L980.9,819.696l15.828,55.396c0.508,1.775-0.258,3.666-1.856,4.588l-42.77,24.688
					C951.468,904.735,950.777,904.908,950.094,904.908z"/>
			</g>
			<g>
				<path fill="#FFFFFF" d="M890.858,681.134c-1.034,0-2.067-0.396-2.853-1.187c-1.566-1.576-1.559-4.123,0.018-5.689l74.554-74.09
					l-75.204-75.087c-1.572-1.57-1.574-4.117-0.005-5.689c1.57-1.572,4.117-1.574,5.689-0.005l77.988,77.861
					c0.792,0.748,1.245,1.784,1.259,2.873c0.013,1.088-0.415,2.135-1.187,2.903l-77.424,76.94
					C892.909,680.744,891.884,681.134,890.858,681.134z"/>
			</g>
			<g>
				<path fill="#FFFFFF" d="M784.295,922.869c-0.326,0-0.656-0.04-0.986-0.123l-0.242-0.061l-106.32-28.578
					c-2.149-0.563-3.435-2.761-2.873-4.91c0.564-2.151,2.763-3.435,4.91-2.874l2.549,0.681l100.103,26.912l27.125-102.495
					c0.37-1.4,1.465-2.493,2.866-2.862l102.467-26.964l-27.097-103.293c-0.564-2.149,0.722-4.348,2.871-4.911
					c2.149-0.563,4.349,0.722,4.911,2.871l28.117,107.179c0.564,2.148-0.72,4.347-2.868,4.911l-104.089,27.391l-27.559,104.131
					C787.704,921.676,786.077,922.869,784.295,922.869z"/>
			</g>
			<g>
				<path fill="#FFFFFF" d="M851.508,1039.642H794.6c-2.221,0-4.023-1.801-4.023-4.022s1.801-4.023,4.023-4.023h54.586
					l45.645-79.058l-77.891-20.869c-2.146-0.574-3.42-2.78-2.844-4.926c0.575-2.147,2.779-3.424,4.926-2.844l82.955,22.225
					c1.208,0.323,2.197,1.19,2.675,2.346c0.479,1.155,0.393,2.467-0.233,3.55l-49.427,85.609
					C854.273,1038.875,852.945,1039.642,851.508,1039.642z"/>
			</g>
			<g>
				<path fill="#FFFFFF" d="M1053.59,689.632c-1.06,0-2.085-0.419-2.844-1.178l-60.73-60.73c-1.571-1.571-1.571-4.118,0-5.689
					c1.569-1.57,4.117-1.57,5.688,0l57.022,57.023l18.347-31.783c1.11-1.925,3.571-2.584,5.495-1.473
					c1.924,1.111,2.583,3.571,1.472,5.495l-20.967,36.323c-0.625,1.083-1.719,1.814-2.958,1.977
					C1053.939,689.621,1053.764,689.632,1053.59,689.632z"/>
			</g>
			<g>
				<path fill="#FFFFFF" d="M992.861,628.902c-1.044,0-2.077-0.406-2.853-1.186l-24.578-24.708
					c-1.558-1.565-1.561-4.094-0.009-5.664l24.578-24.869c1.286-1.302,3.29-1.571,4.872-0.656l42.769,24.698
					c1.242,0.717,2.009,2.042,2.011,3.477s-0.76,2.762-2,3.483l-42.769,24.879C994.252,628.723,993.555,628.902,992.861,628.902z
					 M973.947,600.162l19.575,19.679l34.085-19.828l-34.07-19.675L973.947,600.162z"/>
			</g>
			<g>
				<path fill="#FFFFFF" d="M1114.861,639.401c-0.802,0-1.611-0.24-2.311-0.731l-22.959-16.13l0,0l-28.72-20.183
					c-1.11-0.78-1.752-2.067-1.708-3.423c0.045-1.356,0.77-2.598,1.929-3.304l53.902-32.805c1.716-1.042,3.935-0.663,5.205,0.891
					l28.892,35.338c1.268,1.551,1.202,3.798-0.155,5.271l-31.115,33.779C1117.034,638.958,1115.952,639.401,1114.861,639.401z
					 M1094.217,615.956l20.075,14.104l26.36-28.619l-24.466-29.925l-45.664,27.789L1094.217,615.956z"/>
			</g>
			<g>
				<path fill="#FFFFFF" d="M667.159,621.944c-1.403,0-2.766-0.735-3.505-2.043l-10.136-17.92c-0.701-1.24-0.694-2.758,0.018-3.992
					l10.416-18.042c0.526-0.935,1.404-1.621,2.438-1.906c1.033-0.286,2.14-0.145,3.07,0.389l29.115,16.707l143.18-82.667
					l-12.075-45.082l-33.028-33.027l-143.244,82.644v33.608c0,2.221-1.801,4.023-4.023,4.023h-0.292l-20.653-0.09
					c-1.431-0.006-2.751-0.772-3.467-2.012l-10.288-17.83c-0.533-0.924-0.678-2.022-0.401-3.053c0.276-1.03,0.951-1.909,1.875-2.442
					l29.746-17.161c0.695-1.194,1.986-1.997,3.466-2.002l145.932-84.196c1.576-0.909,3.567-0.648,4.854,0.64l35.971,35.971
					c0.5,0.499,0.858,1.122,1.041,1.804l13.154,49.105c0.471,1.759-0.298,3.614-1.874,4.524l-146.166,84.391
					c-0.7,1.018-1.81,1.627-2.982,1.724l-30.18,17.419C668.501,621.778,667.825,621.944,667.159,621.944z M661.653,600.021
					l7.007,12.389l21.861-12.62l-21.584-12.385L661.653,600.021z M630.788,546.511l14.576,0.064V521.65l-21.698,12.517
					L630.788,546.511z"/>
			</g>
			<g>
				<path fill="#FFFFFF" d="M869.44,505.481c-1.041,0-2.07-0.403-2.845-1.178l-36.153-36.152c-0.5-0.499-0.858-1.121-1.041-1.803
					l-13.234-49.377c-0.471-1.759,0.297-3.615,1.874-4.525l82.947-47.893l-14.456-53.927c-0.576-2.146,0.697-4.352,2.843-4.927
					c2.149-0.576,4.352,0.698,4.927,2.844l15.255,56.909c0.471,1.758-0.297,3.614-1.874,4.525l-82.947,47.894l12.156,45.354
					l33.208,33.207l82.936-47.883c1.576-0.911,3.567-0.648,4.855,0.639l41.674,41.663c1.571,1.57,1.571,4.117,0.001,5.689
					c-1.571,1.571-4.118,1.572-5.689,0l-39.492-39.481l-82.936,47.883C870.822,505.305,870.129,505.481,869.44,505.481z"/>
			</g>
			<g>
				<path fill="#FFFFFF" d="M797.143,604.073c-1.312,0-2.561-0.644-3.319-1.751l-32.619-47.695l-75.483-0.342
					c-1.434-0.006-2.756-0.776-3.47-2.019c-0.714-1.243-0.712-2.773,0.005-4.015l37.142-64.335l-24.429-52.935
					c-0.654-1.417-0.429-3.084,0.576-4.278c1.005-1.193,2.609-1.7,4.118-1.293l46.335,12.424l20.051-34.724l-34.595-33.276
					c-1.32-1.269-1.615-3.269-0.721-4.866c0.895-1.596,2.751-2.389,4.526-1.925l46.85,12.247l16.488-28.568
					c0.027-0.046,0.054-0.091,0.083-0.136l0.027-0.043l31.306-54.226c0.909-1.577,2.762-2.345,4.524-1.874l110.137,29.505
					l91.889,24.475c1.031,0.274,1.911,0.947,2.445,1.87c0.535,0.923,0.682,2.021,0.407,3.052l-24.557,92.177l-29.507,110.132
					c-0.471,1.758-2.065,2.981-3.885,2.981c-0.002,0-0.003,0-0.005,0l-95.768-0.117l-12.143,46.222
					c-0.463,1.759-2.049,2.989-3.867,3c-0.008,0-0.016,0-0.024,0c-1.81,0-3.398-1.209-3.878-2.955l-12.706-46.163l-40.206-0.174
					l-11.827,46.591c-0.389,1.533-1.639,2.695-3.196,2.971C797.613,604.053,797.377,604.073,797.143,604.073z M692.689,546.271
					l70.664,0.32c1.322,0.006,2.556,0.661,3.303,1.753l28.78,42.085l10.409-41.005c0.453-1.784,2.059-3.033,3.899-3.033
					c0.006,0,0.012,0,0.018,0l46.4,0.201c1.804,0.008,3.382,1.216,3.86,2.955l9.547,34.686l9.132-34.761
					c0.465-1.768,2.063-3,3.891-3c0.001,0,0.003,0,0.005,0l95.783,0.116l28.705-107.14l23.521-88.284l-88.007-23.442
					l-107.162-28.708l-29.803,51.621c-0.026,0.046-0.053,0.091-0.081,0.136l-0.028,0.044l-17.982,31.156
					c-0.906,1.568-2.744,2.339-4.502,1.881l-34.897-9.122l25.75,24.767c1.334,1.282,1.62,3.309,0.695,4.91l-23.17,40.125
					c-0.91,1.576-2.763,2.349-4.525,1.874l-41.026-11.001l21.706,47.033c0.548,1.186,0.485,2.565-0.169,3.697L692.689,546.271z"/>
			</g>
			<g>
				<path fill="#FFFFFF" d="M950.029,303.027c-0.695,0-1.388-0.18-2.005-0.536l-31.134-17.91c-0.615-0.353-1.124-0.862-1.478-1.476
					l-17.96-31.114c-0.624-1.079-0.711-2.386-0.238-3.539c0.473-1.152,1.454-2.021,2.656-2.351l67.166-18.443
					c1.393-0.379,2.878,0.009,3.901,1.026c1.022,1.016,1.423,2.502,1.051,3.894l-18.072,67.468
					c-0.324,1.207-1.189,2.195-2.343,2.674C951.076,302.926,950.552,303.027,950.029,303.027z M921.838,278.147l25.66,14.761
					l14.902-55.634l-55.377,15.206L921.838,278.147z"/>
			</g>
			<g>
				<path fill="#FFFFFF" d="M1053.59,518.414c-0.179,0-0.357-0.012-0.537-0.036c-1.235-0.167-2.324-0.896-2.946-1.976
					l-17.961-31.115c-0.354-0.611-0.539-1.305-0.539-2.011v-36.022c0-1.252,0.582-2.432,1.576-3.193
					c0.992-0.761,2.285-1.016,3.492-0.691l67.519,18.182c1.391,0.375,2.476,1.464,2.843,2.857c0.368,1.393-0.037,2.876-1.062,3.888
					l-49.558,48.954C1055.659,518.001,1054.641,518.414,1053.59,518.414z M1039.651,482.199l14.817,25.67l40.867-40.369
					l-55.685-14.995V482.199z"/>
			</g>
			<g>
				<path fill="#FFFFFF" d="M1035.629,451.277c-2.221,0-4.022-1.801-4.022-4.023v-46.246l-56.9-14.242
					c-1.061-0.266-1.967-0.951-2.511-1.899c-0.544-0.948-0.68-2.077-0.374-3.126l16.295-56.036l-40.102-23.22
					c-1.923-1.113-2.579-3.574-1.466-5.497c1.114-1.922,3.574-2.581,5.497-1.465l42.831,24.799c1.602,0.927,2.364,2.828,1.847,4.605
					l-16.01,55.049l55.891,13.989c1.791,0.447,3.047,2.056,3.047,3.902v49.386C1039.651,449.476,1037.85,451.277,1035.629,451.277z"
					/>
			</g>
			<g>
				<path fill="#FFFFFF" d="M890.215,681.778c-1.029,0-2.059-0.393-2.844-1.178c-1.571-1.571-1.571-4.118,0-5.689l28.431-28.381
					l46.781-46.704l-75.203-74.738c-1.027-1.021-1.427-2.515-1.046-3.912l27.885-102.216l-103.002-28.183
					c-1.384-0.378-2.46-1.465-2.827-2.851l-26.955-101.853L678.81,313.669c-2.146,0.576-4.352-0.694-4.929-2.841
					c-0.576-2.145,0.695-4.352,2.841-4.928l106.595-28.658c2.132-0.532,4.3,0.746,4.864,2.873l27.394,103.513l104.645,28.632
					c2.142,0.586,3.404,2.797,2.82,4.939l-28.327,103.833l76.405,75.933c0.758,0.753,1.185,1.776,1.187,2.844
					s-0.42,2.093-1.175,2.849l-0.181,0.181l-77.89,77.759C892.274,681.385,891.244,681.778,890.215,681.778z"/>
			</g>
			<g>
				<path fill="#FFFFFF" d="M1074.553,653.309c-0.682,0-1.374-0.174-2.007-0.54c-1.924-1.111-2.583-3.571-1.472-5.495L1098.372,600
					l-45.644-79.058l-57.023,57.023c-1.569,1.57-4.119,1.57-5.688,0c-1.571-1.571-1.571-4.118,0-5.689l60.73-60.73
					c0.884-0.884,2.122-1.307,3.369-1.144c1.239,0.164,2.333,0.894,2.958,1.977l49.427,85.609c0.719,1.244,0.719,2.778,0,4.023
					l-28.46,49.286C1077.295,652.588,1075.944,653.309,1074.553,653.309z"/>
			</g>
			<g>
				<path fill="#FFFFFF" d="M817.978,276.238c-1.776,0-3.401-1.185-3.882-2.982c-0.576-2.146,0.698-4.352,2.844-4.927l77.891-20.877
					l-45.645-79.058h-96.531c-2.221,0-4.023-1.801-4.023-4.023s1.801-4.023,4.023-4.023h98.853c1.437,0,2.765,0.766,3.483,2.011
					l49.427,85.609c0.626,1.083,0.711,2.395,0.233,3.551s-1.467,2.022-2.675,2.346L819.021,276.1
					C818.673,276.193,818.322,276.238,817.978,276.238z"/>
			</g>
			<g>
				<path fill="#FFFFFF" d="M784.289,285.168c-1.768,0-3.387-1.175-3.876-2.96l-9.242-33.719c-0.484-1.764,0.284-3.633,1.868-4.547
					l42.76-24.688c1.243-0.718,2.773-0.719,4.017-0.004c1.243,0.715,2.012,2.039,2.017,3.474l0.171,49.477
					c0.006,1.83-1.223,3.433-2.992,3.902l-33.689,8.93C784.977,285.124,784.631,285.168,784.289,285.168z M779.75,249.357
					l7.367,26.877l26.83-7.112l-0.137-39.431L779.75,249.357z"/>
			</g>
			<g>
				<path fill="#FFFFFF" d="M830.783,202.424c-0.74,0-1.477-0.204-2.125-0.607c-1.152-0.717-1.865-1.966-1.896-3.323l-1.458-63.083
					c-0.046-2.006,1.393-3.74,3.373-4.063l45.052-7.351c1.981-0.328,3.889,0.858,4.488,2.77l13.697,43.835
					c0.601,1.925-0.316,3.999-2.146,4.848l-57.291,26.599C831.938,202.3,831.359,202.424,830.783,202.424z M833.427,138.724
					l1.235,53.44l26.263-12.195l0,0l22.256-10.332l-11.604-37.139L833.427,138.724z"/>
			</g>
		</g>
	</g>
</g>
</svg>
